{
  "accessors": [
    {
      "bufferView": 2,
      "componentType": 5126,
      "count": 164,
      "max": [
        1,
        0.20000000298023224,
        0.44999998807907104
      ],
      "min": [
        -1,
        -0.20000000298023224,
        2.2351741790771484e-08
      ],
      "type": "VEC3"
    },
    {
      "bufferView": 2,
      "byteOffset": 1968,
      "componentType": 5126,
      "count": 164,
      "max": [
        0.90453958511352539,
        0.68274956941604614,
        0.90453958511352539
      ],
      "min": [
        -0.90453958511352539,
        -0.68274956941604614,
        -0.90453958511352539
      ],
      "type": "VEC3"
    },
    {
      "bufferView": 3,
      "componentType": 5126,
      "count": 164,
      "max": [
        0.95346528291702271,
        0.95346528291702271,
        0.95160406827926636,
        1
      ],
      "min": [
        -0.97485172748565674,
        -0.95346528291702271,
        -0.95346528291702271,
        1
      ],
      "type": "VEC4"
    },
    {
      "bufferView": 1,
      "componentType": 5126,
      "count": 164,
      "max": [
        0.99972206354141235,
        0.99470359086990356
      ],
      "min": [
        0.00012551143299788237,
        0.0085374508053064346
      ],
      "type": "VEC2"
    },
    {
      "bufferView": 1,
      "byteOffset": 1312,
      "componentType": 5126,
      "count": 164,
      "max": [
        0.99972206354141235,
        0.99470359086990356
      ],
      "min": [
        0.00012551143299788237,
        0.0085374508053064346
      ],
      "type": "VEC2"
    },
    {
      "bufferView": 1,
      "byteOffset": 2624,
      "componentType": 5126,
      "count": 164,
      "max": [
        0.99972206354141235,
        0.99470359086990356
      ],
      "min": [
        0.00012551143299788237,
        0.0085374508053064346
      ],
      "type": "VEC2"
    },
    {
      "bufferView": 0,
      "componentType": 5125,
      "count": 480,
      "max": [
        163
      ],
      "min": [
        0
      ],
      "type": "SCALAR"
    },
    {
      "bufferView": 2,
      "byteOffset": 3936,
      "componentType": 5126,
      "count": 164,
      "max": [
        1,
        0.20000000298023224,
        0.44999998807907104
      ],
      "min": [
        -1,
        -0.20000000298023224,
        2.2351741790771484e-08
      ],
      "type": "VEC3"
    },
    {
      "bufferView": 2,
      "byteOffset": 5904,
      "componentType": 5126,
      "count": 164,
      "max": [
        0.90453958511352539,
        0.68274956941604614,
        0.90453958511352539
      ],
      "min": [
        -0.90453958511352539,
        -0.68274956941604614,
        -0.90453958511352539
      ],
      "type": "VEC3"
    },
    {
      "bufferView": 3,
      "byteOffset": 2624,
      "componentType": 5126,
      "count": 164,
      "max": [
        0.95346528291702271,
        0.95346528291702271,
        0.95160406827926636,
        1
      ],
      "min": [
        -0.97485172748565674,
        -0.95346528291702271,
        -0.95346528291702271,
        1
      ],
      "type": "VEC4"
    },
    {
      "bufferView": 1,
      "byteOffset": 3936,
      "componentType": 5126,
      "count": 164,
      "max": [
        0.99972206354141235,
        0.99470359086990356
      ],
      "min": [
        0.00012551143299788237,
        0.0085374508053064346
      ],
      "type": "VEC2"
    },
    {
      "bufferView": 1,
      "byteOffset": 5248,
      "componentType": 5126,
      "count": 164,
      "max": [
        0.99972206354141235,
        0.99470359086990356
      ],
      "min": [
        0.00012551143299788237,
        0.0085374508053064346
      ],
      "type": "VEC2"
    },
    {
      "bufferView": 1,
      "byteOffset": 6560,
      "componentType": 5126,
      "count": 164,
      "max": [
        0.99972206354141235,
        0.99470359086990356
      ],
      "min": [
        0.00012551143299788237,
        0.0085374508053064346
      ],
      "type": "VEC2"
    },
    {
      "bufferView": 0,
      "byteOffset": 1920,
      "componentType": 5125,
      "count": 480,
      "max": [
        163
      ],
      "min": [
        0
      ],
      "type": "SCALAR"
    },
    {
      "bufferView": 2,
      "byteOffset": 7872,
      "componentType": 5126,
      "count": 164,
      "max": [
        1,
        0.44999998807907104,
        0.75999999046325684
      ],
      "min": [
        -1,
        -0.44999998807907104,
        2.3697882767237388e-08
      ],
      "type": "VEC3"
    },
    {
      "bufferView": 2,
      "byteOffset": 9840,
      "componentType": 5126,
      "count": 164,
      "max": [
        0.90453958511352539,
        0.65637141466140747,
        0.90453958511352539
      ],
      "min": [
        -0.90453958511352539,
        -0.65637141466140747,
        -0.90453958511352539
      ],
      "type": "VEC3"
    },
    {
      "bufferView": 3,
      "byteOffset": 5248,
      "componentType": 5126,
      "count": 164,
      "max": [
        0.95346528291702271,
        0.95346528291702271,
        0.95346528291702271,
        1
      ],
      "min": [
        -0.97401797771453857,
        -0.95346528291702271,
        -0.95214712619781494,
        1
      ],
      "type": "VEC4"
    },
    {
      "bufferView": 1,
      "byteOffset": 7872,
      "componentType": 5126,
      "count": 164,
      "max": [
        0.9856264591217041,
        0.99124997854232788
      ],
      "min": [
        0.0085644498467445374,
        0.010252001695334911
      ],
      "type": "VEC2"
    },
    {
      "bufferView": 1,
      "byteOffset": 9184,
      "componentType": 5126,
      "count": 164,
      "max": [
        0.9856264591217041,
        0.99124997854232788
      ],
      "min": [
        0.0085644498467445374,
        0.010252001695334911
      ],
      "type": "VEC2"
    },
    {
      "bufferView": 1,
      "byteOffset": 10496,
      "componentType": 5126,
      "count": 164,
      "max": [
        0.9856264591217041,
        0.99124997854232788
      ],
      "min": [
        0.0085644498467445374,
        0.010252001695334911
      ],
      "type": "VEC2"
    },
    {
      "bufferView": 0,
      "byteOffset": 3840,
      "componentType": 5125,
      "count": 480,
      "max": [
        163
      ],
      "min": [
        0
      ],
      "type": "SCALAR"
    }
  ],
  "asset": {
    "extras": {
      "author": "Vyacheslav_SD (https://sketchfab.com/Vyacheslav_SD)",
      "license": "CC-BY-4.0 (http://creativecommons.org/licenses/by/4.0/)",
      "source": "https://sketchfab.com/models/db931b7e39a04558a173bb5ccd499a66",
      "title": "Wooden Bench And Table lowpoly"
    },
    "generator": "Sketchfab-4.28.0",
    "version": "2.0"
  },
  "bufferViews": [
    {
      "buffer": 0,
      "byteLength": 5760,
      "byteOffset": 0,
      "name": "floatBufferViews",
      "target": 34963
    },
    {
      "buffer": 0,
      "byteLength": 11808,
      "byteOffset": 5760,
      "byteStride": 8,
      "name": "floatBufferViews",
      "target": 34962
    },
    {
      "buffer": 0,
      "byteLength": 11808,
      "byteOffset": 17568,
      "byteStride": 12,
      "name": "floatBufferViews",
      "target": 34962
    },
    {
      "buffer": 0,
      "byteLength": 7872,
      "byteOffset": 29376,
      "byteStride": 16,
      "name": "floatBufferViews",
      "target": 34962
    }
  ],
  "buffers": [
    {
      "byteLength": 37248,
      "uri": "scene.bin"
    }
  ],
  "extensionsRequired": [
    "KHR_materials_pbrSpecularGlossiness"
  ],
  "extensionsUsed": [
    "KHR_materials_pbrSpecularGlossiness"
  ],
  "images": [
    {
      "uri": "textures/wooden_bench_specularGlossiness.png"
    },
    {
      "uri": "textures/wooden_bench_diffuse.png"
    },
    {
      "uri": "textures/wooden_bench_normal.png"
    },
    {
      "uri": "textures/wooden_bench_occlusion.png"
    },
    {
      "uri": "textures/wooden_table_specularGlossiness.png"
    },
    {
      "uri": "textures/wooden_table_diffuse.png"
    },
    {
      "uri": "textures/wooden_table_normal.png"
    },
    {
      "uri": "textures/wooden_table_occlusion.png"
    }
  ],
  "materials": [
    {
      "doubleSided": true,
      "extensions": {
        "KHR_materials_pbrSpecularGlossiness": {
          "diffuseFactor": [
            1,
            1,
            1,
            1
          ],
          "diffuseTexture": {
            "index": 1,
            "texCoord": 0
          },
          "glossinessFactor": 1,
          "specularFactor": [
            1,
            1,
            1
          ],
          "specularGlossinessTexture": {
            "index": 0,
            "texCoord": 0
          }
        }
      },
      "name": "wooden_bench",
      "normalTexture": {
        "index": 2,
        "scale": 1,
        "texCoord": 0
      },
      "occlusionTexture": {
        "index": 3,
        "strength": 1,
        "texCoord": 0
      }
    },
    {
      "doubleSided": true,
      "extensions": {
        "KHR_materials_pbrSpecularGlossiness": {
          "diffuseFactor": [
            1,
            1,
            1,
            1
          ],
          "diffuseTexture": {
            "index": 5,
            "texCoord": 0
          },
          "glossinessFactor": 1,
          "specularFactor": [
            1,
            1,
            1
          ],
          "specularGlossinessTexture": {
            "index": 4,
            "texCoord": 0
          }
        }
      },
      "name": "wooden_table",
      "normalTexture": {
        "index": 6,
        "scale": 1,
        "texCoord": 0
      },
      "occlusionTexture": {
        "index": 7,
        "strength": 1,
        "texCoord": 0
      }
    }
  ],
  "meshes": [
    {
      "name": "wooden_bench.001_wooden_bench_0",
      "primitives": [
        {
          "attributes": {
            "NORMAL": 1,
            "POSITION": 0,
            "TANGENT": 2,
            "TEXCOORD_0": 3,
            "TEXCOORD_1": 4,
            "TEXCOORD_2": 5
          },
          "indices": 6,
          "material": 0,
          "mode": 4
        }
      ]
    },
    {
      "name": "wooden_bench_wooden_bench_0",
      "primitives": [
        {
          "attributes": {
            "NORMAL": 8,
            "POSITION": 7,
            "TANGENT": 9,
            "TEXCOORD_0": 10,
            "TEXCOORD_1": 11,
            "TEXCOORD_2": 12
          },
          "indices": 13,
          "material": 0,
          "mode": 4
        }
      ]
    },
    {
      "name": "wooden_table_wooden_table_0",
      "primitives": [
        {
          "attributes": {
            "NORMAL": 15,
            "POSITION": 14,
            "TANGENT": 16,
            "TEXCOORD_0": 17,
            "TEXCOORD_1": 18,
            "TEXCOORD_2": 19
          },
          "indices": 20,
          "material": 1,
          "mode": 4
        }
      ]
    }
  ],
  "nodes": [
    {
      "children": [
        1
      ],
      "name": "RootNode (gltf orientation matrix)",
      "rotation": [
        -0.70710678118654746,
        -0,
        -0,
        0.70710678118654757
      ]
    },
    {
      "children": [
        2
      ],
      "matrix": [
        1,
        0,
        0,
        0,
        0,
        1,
        0,
        0,
        0,
        0,
        1,
        0,
        0,
        3.2806999570311746e-06,
        2.3840000551444973e-07,
        1
      ],
      "name": "RootNode (model correction matrix)"
    },
    {
      "children": [
        3
      ],
      "matrix": [
        1,
        0,
        0,
        0,
        0,
        0,
        1,
        0,
        0,
        -1,
        0,
        0,
        0,
        0,
        0,
        1
      ],
      "name": "dbc9cae5cdd24b27ad5bea386425be66.fbx"
    },
    {
      "children": [
        4,
        6,
        8
      ],
      "name": "RootNode"
    },
    {
      "children": [
        5
      ],
      "matrix": [
        -99.999999999992411,
        1.2246465878873718e-14,
        -3.894143777553012e-05,
        0,
        -3.8941437775529998e-05,
        7.5497899820753389e-06,
        99.999999999992127,
        0,
        2.9522432265841658e-12,
        99.999999999999702,
        -7.5497899709731087e-06,
        0,
        0,
        0,
        -73.336776733398438,
        1
      ],
      "name": "wooden_bench.001"
    },
    {
      "mesh": 0,
      "name": "wooden_bench.001_wooden_bench_0"
    },
    {
      "children": [
        7
      ],
      "matrix": [
        100,
        0,
        0,
        0,
        0,
        -1.6292067939183141e-05,
        -99.999999999998678,
        0,
        0,
        99.999999999998678,
        -1.6292067939183141e-05,
        0,
        0,
        0,
        72.657737731933594,
        1
      ],
      "name": "wooden_bench"
    },
    {
      "mesh": 1,
      "name": "wooden_bench_wooden_bench_0"
    },
    {
      "children": [
        9
      ],
      "matrix": [
        100,
        0,
        0,
        0,
        0,
        -1.6292067939183141e-05,
        -99.999999999998678,
        0,
        0,
        99.999999999998678,
        -1.6292067939183141e-05,
        0,
        0,
        0,
        0,
        1
      ],
      "name": "wooden_table"
    },
    {
      "mesh": 2,
      "name": "wooden_table_wooden_table_0"
    }
  ],
  "samplers": [
    {
      "magFilter": 9729,
      "minFilter": 9987,
      "wrapS": 10497,
      "wrapT": 10497
    }
  ],
  "scene": 0,
  "scenes": [
    {
      "name": "OSG_Scene",
      "nodes": [
        0
      ]
    }
  ],
  "textures": [
    {
      "sampler": 0,
      "source": 0
    },
    {
      "sampler": 0,
      "source": 1
    },
    {
      "sampler": 0,
      "source": 2
    },
    {
      "sampler": 0,
      "source": 3
    },
    {
      "sampler": 0,
      "source": 4
    },
    {
      "sampler": 0,
      "source": 5
    },
    {
      "sampler": 0,
      "source": 6
    },
    {
      "sampler": 0,
      "source": 7
    }
  ]
}

